<svg width="80" height="81" viewBox="0 0 80 81" fill="none" xmlns="http://www.w3.org/2000/svg">
<path fill-rule="evenodd" clip-rule="evenodd" d="M63.6143 39.6236L26.3675 15.8559V62.8554H27.207L63.6143 39.6236ZM12.2319 80.8288V44.9386L1.85033 66.4506C0.616778 68.9199 0 70.7716 0 72.0062C0 74.6208 2.1043 76.9442 6.3129 78.9777C8.78005 80.2124 10.703 80.83 12.0817 80.83C12.1321 80.83 12.1822 80.8294 12.2319 80.8288ZM32.8088 3.21307C33.3907 2.57527 34.0645 2.01261 34.8299 1.5251C36.4989 0.508364 38.2404 0 40.0544 0C43.9728 0 46.8753 1.88821 48.7619 5.66463L54.1471 16.8034L32.8088 3.21307ZM71.0178 51.6989L78.1494 66.4506C79.3834 68.9199 80 70.7716 80 72.0062C80 74.6208 77.8955 76.9807 73.6871 79.0871C71.2199 80.3218 69.2606 80.9388 67.8098 80.9388C66.4307 80.9388 65.2696 80.6118 64.3268 79.9583C63.4555 79.3048 62.8024 78.6148 62.3675 77.8883L60.7347 74.6208L55.0748 62.8554H53.5006L71.0178 51.6989ZM32.7619 46.7332L39.9456 31.8091L47.2381 46.7332H32.7619Z" fill="#3F51B5"/>
</svg>
